<svg width="1877" height="1867" viewBox="0 0 1877 1867" fill="none" xmlns="http://www.w3.org/2000/svg">
<rect y="14" width="1865" height="1836" rx="918" fill="rgba(255, 255, 255, 1)"/>
<path d="M876.986 1.86093C916.222 -0.482473 955.561 -0.612646 994.81 1.47037C1249.94 16.7689 1467.18 134.045 1638.19 318.882C1644.69 325.91 1638.29 337.315 1628.79 336.144C1532.49 324.282 1456.06 353.111 1365.76 394.664C1360.96 388.533 1355.85 382.649 1350.46 377.033C1219.11 238.018 951.268 240.312 790.005 321.104C765.03 333.614 700.717 381.078 677.533 355.457C672.526 335.859 689.718 320.835 677.095 305.554C633.153 289.245 490.705 405.562 458.305 437.253C367.739 525.116 303.405 636.667 272.56 759.323C270.245 768.682 267.89 778.764 266.384 787.84C257.772 841.987 245.682 867.909 308.91 881.061C429.268 906.1 509.323 840.257 585.406 755.096C541.639 658.817 635.896 536.65 709.861 477.209C843.184 370.064 1095.81 322.044 1219.2 470.295C1281.69 545.367 1243.38 643.706 1169.14 696.233C1080.98 758.602 975.361 789.347 867.249 773.429C890.15 710.817 943.065 604.919 987.062 557.258C994.33 549.282 1002.21 541.89 1010.63 535.152C1024.6 524.141 1048.09 516.769 1045.54 497.608C1041.39 491.151 1036.79 488.241 1029.63 485.654C1009.71 478.462 977.8 481.355 957.343 485.75C738.098 532.849 704.399 974.51 488.782 1075.98C456.647 1091.1 413.055 1100.35 378.746 1087.23C346.444 1074.88 333.286 1047.49 320.234 1017.65C293.552 1000.48 288.992 993.072 265.126 973.385L262.981 974.284C237.707 1008.62 272.047 1124.75 292.228 1160.91C354.86 1273.14 497.837 1207.7 579.397 1159.78C673.217 1107.96 741.159 1027.42 788.692 932.025C800.289 908.753 818.587 864.599 836.257 848.25C852.455 833.264 905.114 840.135 926.8 842.299C1003.05 850.46 1095.51 874.89 1145.36 937.346C1219.93 1030.77 1168.96 1151.63 1082.98 1217.11C967.982 1304.69 813.931 1323.71 673.923 1306.29C622.664 1298.91 577.175 1283.67 525.129 1278.01C488.661 1274.04 355.537 1259.06 351.486 1315.87C349.202 1347.91 399.172 1413.14 421.612 1438.14C483.68 1507.31 567.005 1560.78 651.485 1598.35C670.119 1606.66 706.585 1625.05 723.097 1608.86C729.938 1589.78 709.493 1560.54 710.316 1537.08C710.797 1523.34 712.28 1506.96 723.371 1497.03C789.679 1437.66 906.62 1521.27 960.392 1555.53C989.02 1573.9 1017.84 1591.97 1046.84 1609.74C1170.27 1684.73 1263.94 1727.48 1401.31 1730.12C1410.47 1730.3 1413.94 1742.3 1405.95 1746.79C1291.81 1810.86 1144.55 1853.82 1018.79 1863.74C765.001 1884.85 513.385 1802.77 320.309 1635.88C134.653 1476.35 20.2727 1248.75 2.69203 1003.9C-16.0691 757.708 63.798 514.189 224.54 327.469C390.133 135.851 625.01 18.6321 876.986 1.86093Z" fill="#0faf47ff"/>
<path d="M1565.88 414.169C1572.14 413.33 1582.73 413.26 1589.41 413.295C1647.04 413.049 1702.26 436.304 1742.51 477.741C1816.28 553.193 1859.35 728.129 1871.33 831.036C1876.18 872.741 1876.67 916.514 1876.27 959.076C1876.15 971.916 1869.15 983.765 1857.75 989.682C1709.93 1066.43 1556.66 1072.81 1392.03 1063.86C1362.51 905.18 1219.14 841.561 1076.62 814.968C1249.72 777.919 1439.8 679.491 1399.7 467.459C1455.99 440.05 1503.77 420.646 1565.88 414.169Z" fill="#0faf47ff"/>
<path d="M1836.13 1084.69C1852.56 1078.05 1865.65 1084.45 1862.29 1101.85C1860.4 1111.61 1858.05 1120.91 1857.28 1124.46C1836.14 1226.65 1798.02 1324.53 1744.53 1413.99C1681.93 1517.41 1603.16 1612.07 1480.91 1640.39C1325.05 1676.51 1180.71 1594.25 1053.6 1516.14L914.391 1426.81C1109.8 1440.92 1361.99 1365.07 1393.27 1140.12C1549.3 1145.21 1689.87 1143.83 1836.13 1084.69Z" fill="#0faf47ff"/>
</svg>
